<svg id="visual" viewBox="0 0 900 600" width="900" height="600" xmlns="http://www.w3.org/2000/svg" xmlns:xlink="http://www.w3.org/1999/xlink" version="1.1"><rect x="0" y="0" width="900" height="600" fill="#202021"></rect><path d="M0 138L13.7 137C27.3 136 54.7 134 82 128.8C109.3 123.7 136.7 115.3 163.8 116.8C191 118.3 218 129.7 245.2 135.5C272.3 141.3 299.7 141.7 327 133.7C354.3 125.7 381.7 109.3 409 103.7C436.3 98 463.7 103 491 111.7C518.3 120.3 545.7 132.7 573 139.3C600.3 146 627.7 147 654.8 147.2C682 147.3 709 146.7 736.2 138.7C763.3 130.7 790.7 115.3 818 115.3C845.3 115.3 872.7 130.7 886.3 138.3L900 146L900 0L886.3 0C872.7 0 845.3 0 818 0C790.7 0 763.3 0 736.2 0C709 0 682 0 654.8 0C627.7 0 600.3 0 573 0C545.7 0 518.3 0 491 0C463.7 0 436.3 0 409 0C381.7 0 354.3 0 327 0C299.7 0 272.3 0 245.2 0C218 0 191 0 163.8 0C136.7 0 109.3 0 82 0C54.7 0 27.3 0 13.7 0L0 0Z" fill="#0081af"></path><path d="M0 91L13.7 95.2C27.3 99.3 54.7 107.7 82 107.8C109.3 108 136.7 100 163.8 102.2C191 104.3 218 116.7 245.2 116.2C272.3 115.7 299.7 102.3 327 97.5C354.3 92.7 381.7 96.3 409 99.2C436.3 102 463.7 104 491 103.5C518.3 103 545.7 100 573 103.3C600.3 106.7 627.7 116.3 654.8 121.8C682 127.3 709 128.7 736.2 125.3C763.3 122 790.7 114 818 107C845.3 100 872.7 94 886.3 91L900 88L900 0L886.3 0C872.7 0 845.3 0 818 0C790.7 0 763.3 0 736.2 0C709 0 682 0 654.8 0C627.7 0 600.3 0 573 0C545.7 0 518.3 0 491 0C463.7 0 436.3 0 409 0C381.7 0 354.3 0 327 0C299.7 0 272.3 0 245.2 0C218 0 191 0 163.8 0C136.7 0 109.3 0 82 0C54.7 0 27.3 0 13.7 0L0 0Z" fill="#008ab2"></path><path d="M0 95L13.7 92.5C27.3 90 54.7 85 82 87.2C109.3 89.3 136.7 98.7 163.8 96.5C191 94.3 218 80.7 245.2 75.7C272.3 70.7 299.7 74.3 327 80C354.3 85.7 381.7 93.3 409 100C436.3 106.7 463.7 112.3 491 108.8C518.3 105.3 545.7 92.7 573 90.7C600.3 88.7 627.7 97.3 654.8 95.5C682 93.7 709 81.3 736.2 82.7C763.3 84 790.7 99 818 104.2C845.3 109.3 872.7 104.7 886.3 102.3L900 100L900 0L886.3 0C872.7 0 845.3 0 818 0C790.7 0 763.3 0 736.2 0C709 0 682 0 654.8 0C627.7 0 600.3 0 573 0C545.7 0 518.3 0 491 0C463.7 0 436.3 0 409 0C381.7 0 354.3 0 327 0C299.7 0 272.3 0 245.2 0C218 0 191 0 163.8 0C136.7 0 109.3 0 82 0C54.7 0 27.3 0 13.7 0L0 0Z" fill="#0093b3"></path><path d="M0 73L13.7 76.2C27.3 79.3 54.7 85.7 82 88.5C109.3 91.3 136.7 90.7 163.8 91.3C191 92 218 94 245.2 88.8C272.3 83.7 299.7 71.3 327 72C354.3 72.7 381.7 86.3 409 89C436.3 91.7 463.7 83.3 491 77.3C518.3 71.3 545.7 67.7 573 69.5C600.3 71.3 627.7 78.7 654.8 84.5C682 90.3 709 94.7 736.2 90.2C763.3 85.7 790.7 72.3 818 69.5C845.3 66.7 872.7 74.3 886.3 78.2L900 82L900 0L886.3 0C872.7 0 845.3 0 818 0C790.7 0 763.3 0 736.2 0C709 0 682 0 654.8 0C627.7 0 600.3 0 573 0C545.7 0 518.3 0 491 0C463.7 0 436.3 0 409 0C381.7 0 354.3 0 327 0C299.7 0 272.3 0 245.2 0C218 0 191 0 163.8 0C136.7 0 109.3 0 82 0C54.7 0 27.3 0 13.7 0L0 0Z" fill="#009cb3"></path><path d="M0 50L13.7 54.5C27.3 59 54.7 68 82 73.3C109.3 78.7 136.7 80.3 163.8 76.3C191 72.3 218 62.7 245.2 62C272.3 61.3 299.7 69.7 327 69C354.3 68.3 381.7 58.7 409 56.3C436.3 54 463.7 59 491 61.3C518.3 63.7 545.7 63.3 573 62.8C600.3 62.3 627.7 61.7 654.8 59.2C682 56.7 709 52.3 736.2 54.8C763.3 57.3 790.7 66.7 818 72.5C845.3 78.3 872.7 80.7 886.3 81.8L900 83L900 0L886.3 0C872.7 0 845.3 0 818 0C790.7 0 763.3 0 736.2 0C709 0 682 0 654.8 0C627.7 0 600.3 0 573 0C545.7 0 518.3 0 491 0C463.7 0 436.3 0 409 0C381.7 0 354.3 0 327 0C299.7 0 272.3 0 245.2 0C218 0 191 0 163.8 0C136.7 0 109.3 0 82 0C54.7 0 27.3 0 13.7 0L0 0Z" fill="#00a4b2"></path><path d="M0 54L13.7 51.3C27.3 48.7 54.7 43.3 82 39.8C109.3 36.3 136.7 34.7 163.8 36.2C191 37.7 218 42.3 245.2 44.5C272.3 46.7 299.7 46.3 327 46C354.3 45.7 381.7 45.3 409 44C436.3 42.7 463.7 40.3 491 42.7C518.3 45 545.7 52 573 54.2C600.3 56.3 627.7 53.7 654.8 52.2C682 50.7 709 50.3 736.2 51C763.3 51.7 790.7 53.3 818 55.7C845.3 58 872.7 61 886.3 62.5L900 64L900 0L886.3 0C872.7 0 845.3 0 818 0C790.7 0 763.3 0 736.2 0C709 0 682 0 654.8 0C627.7 0 600.3 0 573 0C545.7 0 518.3 0 491 0C463.7 0 436.3 0 409 0C381.7 0 354.3 0 327 0C299.7 0 272.3 0 245.2 0C218 0 191 0 163.8 0C136.7 0 109.3 0 82 0C54.7 0 27.3 0 13.7 0L0 0Z" fill="#00acae"></path><path d="M0 44L13.7 42.3C27.3 40.7 54.7 37.3 82 38C109.3 38.7 136.7 43.3 163.8 43.3C191 43.3 218 38.7 245.2 37.8C272.3 37 299.7 40 327 40.3C354.3 40.7 381.7 38.3 409 37C436.3 35.7 463.7 35.3 491 35C518.3 34.7 545.7 34.3 573 34C600.3 33.7 627.7 33.3 654.8 34.5C682 35.7 709 38.3 736.2 37.3C763.3 36.3 790.7 31.7 818 30.7C845.3 29.7 872.7 32.3 886.3 33.7L900 35L900 0L886.3 0C872.7 0 845.3 0 818 0C790.7 0 763.3 0 736.2 0C709 0 682 0 654.8 0C627.7 0 600.3 0 573 0C545.7 0 518.3 0 491 0C463.7 0 436.3 0 409 0C381.7 0 354.3 0 327 0C299.7 0 272.3 0 245.2 0C218 0 191 0 163.8 0C136.7 0 109.3 0 82 0C54.7 0 27.3 0 13.7 0L0 0Z" fill="#00b4a5"></path><path d="M0 19L13.7 18.3C27.3 17.7 54.7 16.3 82 15C109.3 13.7 136.7 12.3 163.8 12.8C191 13.3 218 15.7 245.2 16.7C272.3 17.7 299.7 17.3 327 17.5C354.3 17.7 381.7 18.3 409 19.5C436.3 20.7 463.7 22.3 491 21.2C518.3 20 545.7 16 573 13.5C600.3 11 627.7 10 654.8 11C682 12 709 15 736.2 15.5C763.3 16 790.7 14 818 15.7C845.3 17.3 872.7 22.7 886.3 25.3L900 28L900 0L886.3 0C872.7 0 845.3 0 818 0C790.7 0 763.3 0 736.2 0C709 0 682 0 654.8 0C627.7 0 600.3 0 573 0C545.7 0 518.3 0 491 0C463.7 0 436.3 0 409 0C381.7 0 354.3 0 327 0C299.7 0 272.3 0 245.2 0C218 0 191 0 163.8 0C136.7 0 109.3 0 82 0C54.7 0 27.3 0 13.7 0L0 0Z" fill="#00bb99"></path></svg>