<svg id="visual" viewBox="0 0 900 600" width="900" height="600" xmlns="http://www.w3.org/2000/svg" xmlns:xlink="http://www.w3.org/1999/xlink" version="1.1"><rect x="0" y="0" width="900" height="600" fill="#202021"></rect><path d="M308 0L308.7 14.3C309.3 28.7 310.7 57.3 297.8 85.8C285 114.3 258 142.7 258.8 171.2C259.7 199.7 288.3 228.3 292.7 257C297 285.7 277 314.3 279.8 343C282.7 371.7 308.3 400.3 311.3 428.8C314.3 457.3 294.7 485.7 286.3 514.2C278 542.7 281 571.3 282.5 585.7L284 600L0 600L0 585.7C0 571.3 0 542.7 0 514.2C0 485.7 0 457.3 0 428.8C0 400.3 0 371.7 0 343C0 314.3 0 285.7 0 257C0 228.3 0 199.7 0 171.2C0 142.7 0 114.3 0 85.8C0 57.3 0 28.7 0 14.3L0 0Z" fill="#0081af"></path><path d="M187 0L189.5 14.3C192 28.7 197 57.3 214 85.8C231 114.3 260 142.7 277.8 171.2C295.7 199.7 302.3 228.3 296.8 257C291.3 285.7 273.7 314.3 257.2 343C240.7 371.7 225.3 400.3 224.2 428.8C223 457.3 236 485.7 249.2 514.2C262.3 542.7 275.7 571.3 282.3 585.7L289 600L0 600L0 585.7C0 571.3 0 542.7 0 514.2C0 485.7 0 457.3 0 428.8C0 400.3 0 371.7 0 343C0 314.3 0 285.7 0 257C0 228.3 0 199.7 0 171.2C0 142.7 0 114.3 0 85.8C0 57.3 0 28.7 0 14.3L0 0Z" fill="#2395c3"></path><path d="M153 0L166 14.3C179 28.7 205 57.3 207.3 85.8C209.7 114.3 188.3 142.7 189.7 171.2C191 199.7 215 228.3 214.3 257C213.7 285.7 188.3 314.3 187.5 343C186.7 371.7 210.3 400.3 218.8 428.8C227.3 457.3 220.7 485.7 207 514.2C193.3 542.7 172.7 571.3 162.3 585.7L152 600L0 600L0 585.7C0 571.3 0 542.7 0 514.2C0 485.7 0 457.3 0 428.8C0 400.3 0 371.7 0 343C0 314.3 0 285.7 0 257C0 228.3 0 199.7 0 171.2C0 142.7 0 114.3 0 85.8C0 57.3 0 28.7 0 14.3L0 0Z" fill="#38aad7"></path><path d="M100 0L112.3 14.3C124.7 28.7 149.3 57.3 150.7 85.8C152 114.3 130 142.7 126.8 171.2C123.7 199.7 139.3 228.3 141.2 257C143 285.7 131 314.3 132 343C133 371.7 147 400.3 149.5 428.8C152 457.3 143 485.7 144.5 514.2C146 542.7 158 571.3 164 585.7L170 600L0 600L0 585.7C0 571.3 0 542.7 0 514.2C0 485.7 0 457.3 0 428.8C0 400.3 0 371.7 0 343C0 314.3 0 285.7 0 257C0 228.3 0 199.7 0 171.2C0 142.7 0 114.3 0 85.8C0 57.3 0 28.7 0 14.3L0 0Z" fill="#4bbfeb"></path><path d="M45 0L46.2 14.3C47.3 28.7 49.7 57.3 61 85.8C72.3 114.3 92.7 142.7 99 171.2C105.3 199.7 97.7 228.3 86.8 257C76 285.7 62 314.3 64.2 343C66.3 371.7 84.7 400.3 91.7 428.8C98.7 457.3 94.3 485.7 94.7 514.2C95 542.7 100 571.3 102.5 585.7L105 600L0 600L0 585.7C0 571.3 0 542.7 0 514.2C0 485.7 0 457.3 0 428.8C0 400.3 0 371.7 0 343C0 314.3 0 285.7 0 257C0 228.3 0 199.7 0 171.2C0 142.7 0 114.3 0 85.8C0 57.3 0 28.7 0 14.3L0 0Z" fill="#5ed4ff"></path></svg>